<svg width="26" height="26" viewBox="0 0 26 26" fill="none" xmlns="http://www.w3.org/2000/svg">
<path fill-rule="evenodd" clip-rule="evenodd" d="M23.0944 13.0152C23.0944 18.7681 18.4307 23.4318 12.6778 23.4318C6.92481 23.4318 2.26111 18.7681 2.26111 13.0152C2.26111 7.26221 6.92481 2.59851 12.6778 2.59851C18.4307 2.59851 23.0944 7.26221 23.0944 13.0152ZM9.52114 9.85856C9.82623 9.55347 10.3209 9.55347 10.626 9.85856L12.6777 11.9103L14.7295 9.85858C15.0346 9.55349 15.5292 9.55349 15.8343 9.85858C16.1394 10.1637 16.1394 10.6583 15.8343 10.9634L13.7826 13.0152L15.8343 15.0669C16.1394 15.372 16.1394 15.8666 15.8343 16.1717C15.5292 16.4768 15.0345 16.4768 14.7294 16.1717L12.6777 14.12L10.626 16.1717C10.3209 16.4768 9.82626 16.4768 9.52116 16.1717C9.21606 15.8667 9.21606 15.372 9.52116 15.0669L11.5729 13.0152L9.52114 10.9634C9.21604 10.6583 9.21604 10.1637 9.52114 9.85856Z" fill="#A0B3CF"/>
</svg>
