<svg width="25" height="25" viewBox="0 0 25 25" fill="none" xmlns="http://www.w3.org/2000/svg">
<path d="M2.5 19.3488V17.3488H22.5V19.3488H2.5ZM3.65 13.2988L2.35 12.5488L3.2 11.0488H1.5V9.54875H3.2L2.35 8.09875L3.65 7.34875L4.5 8.79875L5.35 7.34875L6.65 8.09875L5.8 9.54875H7.5V11.0488H5.8L6.65 12.5488L5.35 13.2988L4.5 11.7988L3.65 13.2988ZM11.65 13.2988L10.35 12.5488L11.2 11.0488H9.5V9.54875H11.2L10.35 8.09875L11.65 7.34875L12.5 8.79875L13.35 7.34875L14.65 8.09875L13.8 9.54875H15.5V11.0488H13.8L14.65 12.5488L13.35 13.2988L12.5 11.7988L11.65 13.2988ZM19.65 13.2988L18.35 12.5488L19.2 11.0488H17.5V9.54875H19.2L18.35 8.09875L19.65 7.34875L20.5 8.79875L21.35 7.34875L22.65 8.09875L21.8 9.54875H23.5V11.0488H21.8L22.65 12.5488L21.35 13.2988L20.5 11.7988L19.65 13.2988Z" fill="black"/>
</svg>
