<svg width="25" height="25" viewBox="0 0 25 25" fill="none" xmlns="http://www.w3.org/2000/svg">
<rect x="0.560059" y="1.09253" width="23" height="23" stroke="black"/>
<path d="M2.06006 19.5925V17.5925H22.0601V19.5925H2.06006ZM3.21006 13.5425L1.91006 12.7925L2.76006 11.2925H1.06006V9.79253H2.76006L1.91006 8.34253L3.21006 7.59253L4.06006 9.04253L4.91006 7.59253L6.21006 8.34253L5.36006 9.79253H7.06006V11.2925H5.36006L6.21006 12.7925L4.91006 13.5425L4.06006 12.0425L3.21006 13.5425ZM11.2101 13.5425L9.91006 12.7925L10.7601 11.2925H9.06006V9.79253H10.7601L9.91006 8.34253L11.2101 7.59253L12.0601 9.04253L12.9101 7.59253L14.2101 8.34253L13.3601 9.79253H15.0601V11.2925H13.3601L14.2101 12.7925L12.9101 13.5425L12.0601 12.0425L11.2101 13.5425ZM19.2101 13.5425L17.9101 12.7925L18.7601 11.2925H17.0601V9.79253H18.7601L17.9101 8.34253L19.2101 7.59253L20.0601 9.04253L20.9101 7.59253L22.2101 8.34253L21.3601 9.79253H23.0601V11.2925H21.3601L22.2101 12.7925L20.9101 13.5425L20.0601 12.0425L19.2101 13.5425Z" fill="#A4A4A4"/>
</svg>
