<svg width="25" height="25" viewBox="0 0 25 25" fill="none" xmlns="http://www.w3.org/2000/svg">
<path d="M11.5 18.4069C11.3011 18.4069 11.1103 18.4871 10.9697 18.6299C10.829 18.7727 10.75 18.9664 10.75 19.1684C10.75 19.3704 10.829 19.5641 10.9697 19.7069C11.1103 19.8497 11.3011 19.93 11.5 19.93H13.5C13.6989 19.93 13.8897 19.8497 14.0303 19.7069C14.171 19.5641 14.25 19.3704 14.25 19.1684C14.25 18.9664 14.171 18.7727 14.0303 18.6299C13.8897 18.4871 13.6989 18.4069 13.5 18.4069H11.5Z" fill="black"/>
<path fill-rule="evenodd" clip-rule="evenodd" d="M8.5 2.66797C7.90326 2.66797 7.33097 2.90868 6.90901 3.33714C6.48705 3.7656 6.25 4.34672 6.25 4.95265V20.6916C6.25 21.2975 6.48705 21.8786 6.90901 22.3071C7.33097 22.7356 7.90326 22.9763 8.5 22.9763H16.5C17.0967 22.9763 17.669 22.7356 18.091 22.3071C18.5129 21.8786 18.75 21.2975 18.75 20.6916V4.95265C18.75 4.34672 18.5129 3.7656 18.091 3.33714C17.669 2.90868 17.0967 2.66797 16.5 2.66797H8.5ZM7.75 4.95265C7.75 4.75067 7.82902 4.55697 7.96967 4.41415C8.11032 4.27133 8.30109 4.19109 8.5 4.19109H16.5C16.6989 4.19109 16.8897 4.27133 17.0303 4.41415C17.171 4.55697 17.25 4.75067 17.25 4.95265V20.6916C17.25 20.8936 17.171 21.0873 17.0303 21.2301C16.8897 21.3729 16.6989 21.4531 16.5 21.4531H8.5C8.30109 21.4531 8.11032 21.3729 7.96967 21.2301C7.82902 21.0873 7.75 20.8936 7.75 20.6916V4.95265Z" fill="black"/>
</svg>
