<svg width="25" height="25" viewBox="0 0 25 25" fill="none" xmlns="http://www.w3.org/2000/svg">
<rect x="1.24658" y="0.607544" width="23" height="23.37" stroke="black"/>
<path d="M11.7466 17.8773C11.5477 17.8773 11.3569 17.9576 11.2163 18.1004C11.0756 18.2432 10.9966 18.4369 10.9966 18.6389C10.9966 18.8409 11.0756 19.0346 11.2163 19.1774C11.3569 19.3202 11.5477 19.4004 11.7466 19.4004H13.7466C13.9455 19.4004 14.1363 19.3202 14.2769 19.1774C14.4176 19.0346 14.4966 18.8409 14.4966 18.6389C14.4966 18.4369 14.4176 18.2432 14.2769 18.1004C14.1363 17.9576 13.9455 17.8773 13.7466 17.8773H11.7466Z" fill="#A4A4A4"/>
<path fill-rule="evenodd" clip-rule="evenodd" d="M8.74658 2.13843C8.14984 2.13843 7.57755 2.37913 7.15559 2.8076C6.73364 3.23606 6.49658 3.81718 6.49658 4.42311V20.162C6.49658 20.768 6.73364 21.3491 7.15559 21.7776C7.57755 22.206 8.14984 22.4467 8.74658 22.4467H16.7466C17.3433 22.4467 17.9156 22.206 18.3376 21.7776C18.7595 21.3491 18.9966 20.768 18.9966 20.162V4.42311C18.9966 3.81718 18.7595 3.23606 18.3376 2.8076C17.9156 2.37913 17.3433 2.13843 16.7466 2.13843H8.74658ZM7.99658 4.42311C7.99658 4.22113 8.0756 4.02743 8.21625 3.88461C8.3569 3.74179 8.54767 3.66155 8.74658 3.66155H16.7466C16.9455 3.66155 17.1363 3.74179 17.2769 3.88461C17.4176 4.02743 17.4966 4.22113 17.4966 4.42311V20.162C17.4966 20.364 17.4176 20.5577 17.2769 20.7005C17.1363 20.8434 16.9455 20.9236 16.7466 20.9236H8.74658C8.54767 20.9236 8.3569 20.8434 8.21625 20.7005C8.0756 20.5577 7.99658 20.364 7.99658 20.162V4.42311Z" fill="#A4A4A4"/>
</svg>
